# xmcd
#
# Track frame offsets:
#	150
#	14979
#	29446
#	45947
#	62007
#	79205
#	95490
#	113037
#	126832
#	142383
#	158720
#	170303
#	182980
#	196599
#	212210
#	226545
#	241001
#	249781
#	254181
#	256504
#	257915
#	258696
#	259876
#
# Disc length: 3486 seconds
#
# Revision: 8
# Processed by: cddbd v1.5.2PL0 Copyright (c) Steve Scherf et al.
# Submitted via: EasyCDDAExtractor 15.3.0.1
#
DISCID=440d9c17
DTITLE=Selena - Mis Primeros Exitos (20 Years Of Music)
DYEAR=2002
DGENRE=Latin
TTITLE0=Estoy Contigo
TTITLE1=Sentimientos
TTITLE2=Acuerdate De Mi
TTITLE3=Tu No Sabes
TTITLE4=Costumbres
TTITLE5=Siempre
TTITLE6=Dame Un Beso
TTITLE7=Yo Fui Aquella
TTITLE8=Cariño, Cariño Mio
TTITLE9=Dulce Amor
TTITLE10=Quiero Estar Contigo
TTITLE11=Terco Corazon
TTITLE12=Dime
TTITLE13=Ya Se Va
TTITLE14=Cien Años
TTITLE15=Quiero
TTITLE16=Intro (Spoken Liner Notes By The Band And Family)
TTITLE17=Tu No Sabes, Costumbres (Spoken Liner Notes By The Band And Family)
TTITLE18=Dame Un Beso, Cariño, Cariño Mio (Spoken Liner Notes By The Band And 
TTITLE18=Family)
TTITLE19=Yo Fui Aquella (Spoken Liner Notes By The Band And Family)
TTITLE20=Quiero Estar Contigo (Spoken Liner Notes By The Band And Family)
TTITLE21=Cien Años (Spoken Liner Notes By The Band And Family)
TTITLE22=Outro (Spoken Liner Notes By The Band And Family)
EXTD=YEAR: 2002
EXTT0=
EXTT1=
EXTT2=
EXTT3=
EXTT4=
EXTT5=
EXTT6=
EXTT7=
EXTT8=
EXTT9=
EXTT10=
EXTT11=
EXTT12=
EXTT13=
EXTT14=
EXTT15=
EXTT16=
EXTT17=
EXTT18=
EXTT19=
EXTT20=
EXTT21=
EXTT22=
PLAYORDER=
